<svg width="21" height="20" viewBox="0 0 21 20" fill="none" xmlns="http://www.w3.org/2000/svg">
<path d="M5.01795 18.2493C5.01688 18.0645 5.05229 17.8813 5.12215 17.7103C5.19201 17.5393 5.29495 17.3837 5.42505 17.2525L11.8685 10.8231C12.0001 10.6926 12.1045 10.5373 12.1758 10.3663C12.2471 10.1952 12.2838 10.0118 12.2838 9.82642C12.2838 9.64109 12.2471 9.45759 12.1758 9.2865C12.1045 9.11542 12.0001 8.96017 11.8685 8.82967L5.42505 2.40026C5.16071 2.13591 5.01221 1.77739 5.01221 1.40356C5.01221 1.02972 5.16071 0.671194 5.42505 0.406851C5.6894 0.14251 6.04792 -0.00599672 6.42176 -0.0059967C6.7956 -0.00599669 7.15412 0.14251 7.41846 0.406851L13.8479 6.85033C14.6166 7.65041 15.0458 8.71692 15.0458 9.82642C15.0458 10.9359 14.6166 12.0024 13.8479 12.8025L7.41846 19.2459C7.28796 19.3775 7.1327 19.4819 6.96163 19.5533C6.79056 19.6245 6.60707 19.6612 6.42176 19.6612C6.23644 19.6612 6.05295 19.6245 5.88188 19.5533C5.71081 19.4819 5.55556 19.3775 5.42505 19.2459C5.29495 19.1148 5.19201 18.9592 5.12215 18.7882C5.05229 18.6172 5.01688 18.434 5.01795 18.2493Z" fill="#505050"/>
</svg>
