<svg width="21" height="20" viewBox="0 0 21 20" fill="none" xmlns="http://www.w3.org/2000/svg">
<path d="M2.78516 2.5H3.94016C4.36516 2.5 4.73599 2.78583 4.84599 3.19583L5.16516 4.39333M5.16516 4.39333C9.80736 4.26324 14.4451 4.77929 18.9452 5.92667C18.2585 7.97167 17.4427 9.95833 16.5085 11.875H7.16016M5.16516 4.39333L7.16016 11.875M7.16016 11.875C6.49711 11.875 5.86123 12.1384 5.39239 12.6072C4.92355 13.0761 4.66016 13.712 4.66016 14.375H17.7852M5.91016 16.875C5.91016 17.0408 5.84431 17.1997 5.7271 17.3169C5.60989 17.4342 5.45092 17.5 5.28516 17.5C5.1194 17.5 4.96042 17.4342 4.84321 17.3169C4.726 17.1997 4.66016 17.0408 4.66016 16.875C4.66016 16.7092 4.726 16.5503 4.84321 16.4331C4.96042 16.3158 5.1194 16.25 5.28516 16.25C5.45092 16.25 5.60989 16.3158 5.7271 16.4331C5.84431 16.5503 5.91016 16.7092 5.91016 16.875ZM16.5352 16.875C16.5352 17.0408 16.4693 17.1997 16.3521 17.3169C16.2349 17.4342 16.0759 17.5 15.9102 17.5C15.7444 17.5 15.5854 17.4342 15.4682 17.3169C15.351 17.1997 15.2852 17.0408 15.2852 16.875C15.2852 16.7092 15.351 16.5503 15.4682 16.4331C15.5854 16.3158 15.7444 16.25 15.9102 16.25C16.0759 16.25 16.2349 16.3158 16.3521 16.4331C16.4693 16.5503 16.5352 16.7092 16.5352 16.875Z" stroke="black" stroke-width="1.25" stroke-linecap="round" stroke-linejoin="round"/>
</svg>
