<svg width="24" height="25" viewBox="0 0 24 25" fill="none" xmlns="http://www.w3.org/2000/svg">
<path d="M18 18.5C19.6569 18.5 21 17.1569 21 15.5C21 13.8431 19.6569 12.5 18 12.5C16.3431 12.5 15 13.8431 15 15.5C15 17.1569 16.3431 18.5 18 18.5Z" stroke="#22C55E" stroke-width="2" stroke-linecap="round" stroke-linejoin="round"/>
<path d="M9 11.5C11.2091 11.5 13 9.70914 13 7.5C13 5.29086 11.2091 3.5 9 3.5C6.79086 3.5 5 5.29086 5 7.5C5 9.70914 6.79086 11.5 9 11.5Z" stroke="#22C55E" stroke-width="2" stroke-linecap="round" stroke-linejoin="round"/>
<path d="M10 15.5H6C4.93913 15.5 3.92172 15.9214 3.17157 16.6716C2.42143 17.4217 2 18.4391 2 19.5V21.5" stroke="#22C55E" stroke-width="2" stroke-linecap="round" stroke-linejoin="round"/>
<path d="M21.7001 16.9L20.8 16.6" stroke="#22C55E" stroke-width="2" stroke-linecap="round" stroke-linejoin="round"/>
<path d="M15.2 14.4L14.3 14.1" stroke="#22C55E" stroke-width="2" stroke-linecap="round" stroke-linejoin="round"/>
<path d="M16.6001 19.2001L16.9001 18.3" stroke="#22C55E" stroke-width="2" stroke-linecap="round" stroke-linejoin="round"/>
<path d="M19.1001 12.7L19.4001 11.8" stroke="#22C55E" stroke-width="2" stroke-linecap="round" stroke-linejoin="round"/>
<path d="M19.6 19.2L19.2 18.2" stroke="#22C55E" stroke-width="2" stroke-linecap="round" stroke-linejoin="round"/>
<path d="M16.7999 12.8L16.3999 11.8" stroke="#22C55E" stroke-width="2" stroke-linecap="round" stroke-linejoin="round"/>
<path d="M14.3 17.1L15.3 16.7" stroke="#22C55E" stroke-width="2" stroke-linecap="round" stroke-linejoin="round"/>
<path d="M20.7 14.3L21.7 13.9" stroke="#22C55E" stroke-width="2" stroke-linecap="round" stroke-linejoin="round"/>
</svg>
