<svg width="17" height="16" viewBox="0 0 17 16" fill="none" xmlns="http://www.w3.org/2000/svg">
<path d="M14.9571 6.69425H14.4201V6.66659H8.42008V9.33325H12.1878C11.6381 10.8856 10.1611 11.9999 8.42008 11.9999C6.21108 11.9999 4.42008 10.2089 4.42008 7.99992C4.42008 5.79092 6.21108 3.99992 8.42008 3.99992C9.43975 3.99992 10.3674 4.38459 11.0738 5.01292L12.9594 3.12725C11.7688 2.01759 10.1761 1.33325 8.42008 1.33325C4.73842 1.33325 1.75342 4.31825 1.75342 7.99992C1.75342 11.6816 4.73842 14.6666 8.42008 14.6666C12.1018 14.6666 15.0868 11.6816 15.0868 7.99992C15.0868 7.55292 15.0408 7.11659 14.9571 6.69425Z" fill="#FFC107"/>
<path d="M2.52209 4.89692L4.71243 6.50325C5.30509 5.03592 6.74043 3.99992 8.42009 3.99992C9.43976 3.99992 10.3674 4.38459 11.0738 5.01292L12.9594 3.12725C11.7688 2.01759 10.1761 1.33325 8.42009 1.33325C5.85943 1.33325 3.63876 2.77892 2.52209 4.89692Z" fill="#FF3D00"/>
<path d="M8.41999 14.6667C10.142 14.6667 11.7067 14.0077 12.8897 12.936L10.8263 11.19C10.157 11.697 9.32499 12 8.41999 12C6.68599 12 5.21365 10.8943 4.65899 9.35132L2.48499 11.0263C3.58832 13.1853 5.82899 14.6667 8.41999 14.6667Z" fill="#4CAF50"/>
<path d="M14.957 6.69441H14.42V6.66675H8.42004V9.33341H12.1877C11.9237 10.0791 11.444 10.7221 10.8254 11.1904L10.8264 11.1897L12.8897 12.9357C12.7437 13.0684 15.0867 11.3334 15.0867 8.00008C15.0867 7.55308 15.0407 7.11675 14.957 6.69441Z" fill="#1976D2"/>
</svg>
