<svg width="25" height="25" viewBox="0 0 25 25" fill="none" xmlns="http://www.w3.org/2000/svg">
<path d="M20.1099 13.5C20.1099 18.5 16.6099 21 12.4499 22.45C12.232 22.5238 11.9954 22.5202 11.7799 22.44C7.60986 21 4.10986 18.5 4.10986 13.5V6.49996C4.10986 6.23474 4.21522 5.98039 4.40276 5.79285C4.59029 5.60532 4.84465 5.49996 5.10986 5.49996C7.10986 5.49996 9.60986 4.29996 11.3499 2.77996C11.5617 2.59896 11.8312 2.49951 12.1099 2.49951C12.3885 2.49951 12.658 2.59896 12.8699 2.77996C14.6199 4.30996 17.1099 5.49996 19.1099 5.49996C19.3751 5.49996 19.6294 5.60532 19.817 5.79285C20.0045 5.98039 20.1099 6.23474 20.1099 6.49996V13.5Z" stroke="#22C55E" stroke-width="2" stroke-linecap="round" stroke-linejoin="round"/>
<path d="M9.10986 12.5L11.1099 14.5L15.1099 10.5" stroke="#22C55E" stroke-width="2" stroke-linecap="round" stroke-linejoin="round"/>
</svg>
